<svg width="160" height="66" viewBox="0 0 160 66" fill="none" xmlns="http://www.w3.org/2000/svg">
<g filter="url(#filter0_d_92_171)">
<g filter="url(#filter1_d_92_171)">
<path d="M8.89125 13.676C9.41733 13.5708 9.91711 13.505 10.3906 13.4787C10.8904 13.4524 11.377 13.4393 11.8505 13.4393C12.2976 13.4393 12.7448 13.4524 13.192 13.4787C13.6654 13.505 14.1521 13.5708 14.6518 13.676L12.0872 28.3931C11.9031 29.4716 11.7584 30.4317 11.6532 31.2734C11.548 32.1152 11.4954 32.878 11.4954 33.5619C11.4954 34.9297 11.7452 35.9424 12.245 36.6C12.7448 37.2313 13.626 37.547 14.8886 37.547C15.8618 37.547 16.6773 37.376 17.3349 37.034C17.9925 36.6658 18.5448 36.1134 18.992 35.3769C19.4655 34.614 19.8469 33.6671 20.1362 32.536C20.4519 31.3786 20.7544 29.9977 21.0437 28.3931L23.6084 13.676C24.1871 13.5708 24.7 13.505 25.1472 13.4787C25.6206 13.4524 26.081 13.4393 26.5281 13.4393C27.0016 13.4393 27.4751 13.4524 27.9485 13.4787C28.422 13.505 28.9086 13.5708 29.4084 13.676L26.607 29.6163C26.2388 31.7206 25.7785 33.575 25.2261 35.1796C24.6737 36.7841 23.924 38.1256 22.9771 39.2041C22.0301 40.2826 20.8333 41.1112 19.3866 41.6898C17.9661 42.2422 16.2169 42.5184 14.1389 42.5184C11.2718 42.5184 9.14114 41.8608 7.74702 40.5456C6.35291 39.2304 5.65585 37.0866 5.65585 34.1143C5.65585 32.7991 5.80052 31.2997 6.08987 29.6163L8.89125 13.676ZM31.6956 20.857C31.985 19.4629 32.1823 18.2529 32.2875 17.2271C32.419 16.1749 32.4848 15.2937 32.4848 14.5835C32.4848 14.2942 32.4716 14.0574 32.4453 13.8733C32.4453 13.6629 32.4321 13.4393 32.4058 13.2025C32.853 13.1236 33.3659 13.071 33.9446 13.0447C34.5233 12.9921 35.0231 12.9658 35.444 12.9658C36.2068 12.9658 37.0485 13.0447 37.9692 13.2025C38.1007 13.5971 38.1664 14.0969 38.1664 14.7019C38.1664 15.2543 38.1138 15.8856 38.0086 16.5958C37.9034 17.306 37.7719 18.0819 37.614 18.9237L34.5759 34.785C34.497 35.2322 34.4576 35.6004 34.4576 35.8898C34.4576 36.3107 34.5102 36.6395 34.6154 36.8762C34.7469 37.1129 34.9047 37.2971 35.0889 37.4286C35.273 37.5601 35.4834 37.6522 35.7202 37.7048C35.9569 37.7311 36.1936 37.7442 36.4304 37.7442C36.5356 37.7442 36.7329 37.7311 37.0222 37.7048C37.3116 37.6522 37.5746 37.5864 37.8113 37.5075C37.9428 37.9547 38.0481 38.4413 38.127 38.9674C38.2322 39.4935 38.2848 40.0327 38.2848 40.5851C38.2848 40.7955 38.2716 40.9928 38.2453 41.1769C38.2453 41.361 38.2322 41.5583 38.2059 41.7688C37.8113 41.9266 37.2984 42.0449 36.6671 42.1239C36.0358 42.2291 35.3387 42.2817 34.5759 42.2817C32.7873 42.2817 31.38 41.8477 30.3541 40.9796C29.3283 40.0853 28.8153 38.6912 28.8153 36.7973C28.8153 36.429 28.8416 36.0476 28.8943 35.6531C28.9469 35.2322 29.0126 34.7982 29.0915 34.351L31.6956 20.857ZM41.9629 25.9074H38.9247C38.9247 25.1972 38.9773 24.5001 39.0826 23.8162C39.1878 23.1323 39.3851 22.409 39.6744 21.6461H42.7125L42.9493 20.4625C43.0808 19.8049 43.1597 19.1867 43.186 18.608C43.2123 18.003 43.2254 17.5033 43.2254 17.1087C43.9094 16.6615 44.7642 16.3459 45.7901 16.1617C46.816 15.9776 47.7629 15.8856 48.6309 15.8856C48.7625 16.2801 48.8282 16.7799 48.8282 17.3849C48.8282 17.8058 48.7888 18.2661 48.7098 18.7659C48.6572 19.2393 48.5783 19.7654 48.4731 20.3441L48.2364 21.6461H53.1289C53.1289 22.4353 53.0632 23.1586 52.9316 23.8162C52.8001 24.4738 52.616 25.1709 52.3793 25.9074H47.4867L46.1057 33.6803C46.0531 34.0485 46.0005 34.3905 45.9479 34.7061C45.9216 35.0218 45.9085 35.3243 45.9085 35.6136C45.9085 36.2975 46.0663 36.8367 46.3819 37.2313C46.6976 37.6259 47.2894 37.8231 48.1575 37.8231C48.6046 37.8231 48.9992 37.7968 49.3411 37.7442C49.6831 37.6653 49.9987 37.5864 50.2881 37.5075C50.63 38.2703 50.801 39.2699 50.801 40.5062C50.801 40.7166 50.801 40.927 50.801 41.1375C50.801 41.3479 50.7879 41.5583 50.7616 41.7688C49.6305 42.1107 48.2758 42.2817 46.6976 42.2817C44.488 42.2817 42.844 41.874 41.7656 41.0585C40.7134 40.2431 40.1873 38.8753 40.1873 36.9551C40.1873 36.5605 40.2136 36.1528 40.2662 35.732C40.3188 35.3111 40.3846 34.8508 40.4635 34.351L41.9629 25.9074ZM53.6758 30.4054C53.9651 28.7482 54.1755 27.2884 54.3071 26.0258C54.4649 24.7369 54.5438 23.7373 54.5438 23.0271C54.5438 22.7378 54.5438 22.501 54.5438 22.3169C54.5438 22.1065 54.5306 21.8829 54.5043 21.6461C55.3724 21.4883 56.2404 21.4094 57.1084 21.4094C57.503 21.4094 57.8976 21.4357 58.2921 21.4883C58.6867 21.5146 59.1075 21.5672 59.5547 21.6461C59.6073 21.8566 59.6599 22.1065 59.7125 22.3958C59.7652 22.6852 59.7915 23.1192 59.7915 23.6979C59.7915 23.9346 59.7783 24.1713 59.752 24.4081C59.752 24.6448 59.7257 24.9342 59.6731 25.2761C59.9361 24.8026 60.2649 24.3423 60.6595 23.8951C61.054 23.4217 61.4881 23.0008 61.9615 22.6325C62.4613 22.2643 63.0005 21.9749 63.5792 21.7645C64.1842 21.5278 64.8418 21.4094 65.552 21.4094C66.1044 21.4094 66.5779 21.4752 66.9725 21.6067C66.9988 21.7119 67.0119 21.8171 67.0119 21.9223C67.0119 22.0276 67.0119 22.1459 67.0119 22.2774C67.0119 23.014 66.9199 23.7768 66.7357 24.5659C66.5516 25.355 66.3017 26.0126 65.9861 26.5387C65.8282 26.5124 65.6573 26.4861 65.4731 26.4598C65.289 26.4335 65.0523 26.4203 64.7629 26.4203C63.6845 26.4203 62.7901 26.6045 62.0799 26.9727C61.396 27.341 60.8305 27.8671 60.3833 28.551C59.9361 29.2086 59.581 30.0108 59.318 30.9578C59.0549 31.9047 58.8182 32.9569 58.6078 34.1143L57.1479 42.0449C56.122 42.2028 55.1619 42.2817 54.2676 42.2817C53.347 42.2817 52.4395 42.2028 51.5451 42.0449L53.6758 30.4054ZM78.4505 25.8679C78.2137 25.8153 77.977 25.789 77.7403 25.789C77.5298 25.7627 77.3194 25.7496 77.109 25.7496C75.8464 25.7496 74.7679 26.0652 73.8736 26.6965C73.0055 27.3278 72.2822 28.1169 71.7035 29.0639C71.1248 30.0108 70.7039 31.0367 70.4409 32.1415C70.1779 33.2199 70.0463 34.2063 70.0463 35.1007C70.0463 37.0472 70.6908 38.0204 71.9797 38.0204C73.2423 38.0204 74.4128 37.2576 75.4913 35.732C76.5697 34.18 77.3589 32.0099 77.8586 29.2217L78.4505 25.8679ZM82.5145 33.2068C82.2251 34.8639 82.0147 36.337 81.8832 37.6259C81.7516 38.8885 81.6859 39.8749 81.6859 40.5851C81.6859 40.8744 81.6859 41.1243 81.6859 41.3347C81.6859 41.5189 81.699 41.7293 81.7253 41.966C80.8573 42.1239 80.0024 42.2028 79.1607 42.2028C78.4242 42.2028 77.6088 42.1239 76.7144 41.966C76.6618 41.7556 76.6092 41.5057 76.5566 41.2164C76.504 40.927 76.4777 40.493 76.4777 39.9143C76.4777 39.6776 76.4777 39.4277 76.4777 39.1647C76.4777 38.9016 76.504 38.5991 76.5566 38.2572C75.7938 39.4671 74.8205 40.4799 73.6368 41.2953C72.4532 42.1107 71.0722 42.5184 69.494 42.5184C67.7579 42.5184 66.4558 41.966 65.5878 40.8613C64.7198 39.7565 64.2857 38.2966 64.2857 36.4816C64.2857 34.5088 64.5751 32.6018 65.1538 30.7605C65.7588 28.9192 66.64 27.2884 67.7973 25.8679C68.981 24.4475 70.4409 23.3165 72.177 22.4747C73.913 21.6067 75.9384 21.1727 78.2532 21.1727C79.4106 21.1727 80.489 21.2516 81.4886 21.4094C82.4882 21.5672 83.4746 21.7908 84.4478 22.0802L82.5145 33.2068ZM90.774 13.7155C91.8525 13.5313 92.8915 13.4393 93.8911 13.4393C94.3908 13.4393 94.8512 13.4656 95.272 13.5182C95.6929 13.5708 96.1532 13.6366 96.653 13.7155L99.9279 29.5374L109.121 13.7155C109.568 13.6103 110.029 13.5445 110.502 13.5182C110.976 13.4656 111.449 13.4393 111.923 13.4393C112.37 13.4393 112.83 13.4656 113.303 13.5182C113.803 13.5445 114.277 13.6103 114.724 13.7155L111.015 42.0449C109.937 42.2028 108.976 42.2817 108.135 42.2817C107.214 42.2817 106.346 42.2028 105.531 42.0449L108.174 23.4611L100.678 36.1265C100.283 36.1791 99.8884 36.2317 99.4938 36.2844C99.1256 36.3107 98.7573 36.3238 98.3891 36.3238C98.0208 36.3238 97.6526 36.3107 97.2843 36.2844C96.9423 36.2581 96.5872 36.2054 96.219 36.1265L93.6543 23.3033L89.8271 42.0449C88.9065 42.2028 88.0516 42.2817 87.2624 42.2817C86.4733 42.2817 85.6447 42.2028 84.7767 42.0449L90.774 13.7155ZM120.072 34.3116C120.23 35.5741 120.651 36.5211 121.335 37.1524C122.019 37.7574 123.018 38.0599 124.333 38.0599C125.385 38.0599 126.306 37.9547 127.095 37.7442C127.911 37.5075 128.766 37.205 129.66 36.8367C130.081 37.3628 130.357 38.0073 130.488 38.7701C130.646 39.5066 130.725 40.2957 130.725 41.1375C130.278 41.3479 129.752 41.5452 129.147 41.7293C128.568 41.8871 127.963 42.0186 127.332 42.1239C126.701 42.2554 126.069 42.3474 125.438 42.4C124.807 42.479 124.241 42.5184 123.741 42.5184C122.137 42.5184 120.756 42.3211 119.599 41.9266C118.467 41.532 117.521 40.9796 116.758 40.2694C116.021 39.5329 115.469 38.6517 115.101 37.6259C114.759 36.5737 114.588 35.4163 114.588 34.1537C114.588 32.5492 114.864 30.9709 115.416 29.419C115.969 27.8671 116.745 26.4861 117.744 25.2761C118.77 24.0398 120.006 23.0534 121.453 22.3169C122.926 21.5541 124.57 21.1727 126.385 21.1727C127.253 21.1727 128.055 21.2779 128.792 21.4883C129.555 21.6988 130.212 22.0276 130.765 22.4747C131.317 22.8956 131.751 23.4217 132.067 24.053C132.382 24.6843 132.54 25.4208 132.54 26.2625C132.54 27.4462 132.264 28.472 131.712 29.3401C131.159 30.2081 130.423 30.9446 129.502 31.5496C128.581 32.1546 127.529 32.6544 126.346 33.049C125.188 33.4172 123.978 33.6934 122.716 33.8775L120.072 34.3116ZM122.321 30.287C123.321 30.1292 124.136 29.9319 124.767 29.6952C125.399 29.4321 125.898 29.156 126.267 28.8666C126.635 28.551 126.885 28.2353 127.016 27.9197C127.148 27.604 127.214 27.2884 127.214 26.9727C127.214 26.4729 127.043 26.0652 126.701 25.7496C126.385 25.4339 125.951 25.2761 125.399 25.2761C124.715 25.2761 124.083 25.4339 123.505 25.7496C122.952 26.0389 122.466 26.4335 122.045 26.9333C121.624 27.433 121.256 28.0117 120.94 28.6693C120.651 29.3006 120.427 29.9451 120.269 30.6027L122.321 30.287ZM146.46 25.8679C146.223 25.8153 145.986 25.789 145.75 25.789C145.539 25.7627 145.329 25.7496 145.118 25.7496C143.856 25.7496 142.777 26.0652 141.883 26.6965C141.015 27.3278 140.292 28.1169 139.713 29.0639C139.134 30.0108 138.713 31.0367 138.45 32.1415C138.187 33.2199 138.056 34.2063 138.056 35.1007C138.056 37.0472 138.7 38.0204 139.989 38.0204C141.252 38.0204 142.422 37.2576 143.501 35.732C144.579 34.18 145.368 32.0099 145.868 29.2217L146.46 25.8679ZM150.682 33.2068C150.392 34.8639 150.182 36.337 150.05 37.6259C149.919 38.8885 149.853 39.8749 149.853 40.5851C149.853 40.8744 149.853 41.1243 149.853 41.3347C149.853 41.5189 149.866 41.7293 149.893 41.966C149.024 42.1239 148.17 42.2028 147.328 42.2028C146.591 42.2028 145.776 42.1239 144.882 41.966C144.829 41.7556 144.776 41.5057 144.724 41.2164C144.671 40.927 144.645 40.493 144.645 39.9143C144.645 39.6776 144.645 39.4014 144.645 39.0857C144.671 38.7701 144.711 38.4413 144.763 38.0993C144.395 38.7043 143.948 39.283 143.422 39.8354C142.922 40.3615 142.356 40.8218 141.725 41.2164C141.12 41.6109 140.463 41.9266 139.752 42.1633C139.042 42.4 138.292 42.5184 137.503 42.5184C135.767 42.5184 134.465 41.966 133.597 40.8613C132.729 39.7565 132.295 38.2966 132.295 36.4816C132.295 34.5088 132.584 32.6018 133.163 30.7605C133.768 28.9192 134.649 27.2884 135.807 25.8679C136.99 24.4475 138.45 23.3165 140.186 22.4747C141.922 21.6067 143.948 21.1727 146.263 21.1727C146.447 21.1727 146.618 21.1858 146.775 21.2121C146.96 21.2121 147.117 21.2121 147.249 21.2121C147.538 19.6602 147.736 18.345 147.841 17.2665C147.972 16.1881 148.038 15.2937 148.038 14.5835C148.038 14.2942 148.025 14.0574 147.999 13.8733C147.999 13.6629 147.985 13.4393 147.959 13.2025C148.406 13.1236 148.919 13.071 149.498 13.0447C150.077 12.9921 150.576 12.9658 150.997 12.9658C151.76 12.9658 152.602 13.0447 153.522 13.2025C153.654 13.5971 153.72 14.0969 153.72 14.7019C153.72 15.8593 153.562 17.2665 153.246 18.9237L150.682 33.2068Z" fill="white"/>
</g>
<path d="M10.2206 2.6699H13.6894C13.6894 2.69337 13.6894 2.71685 13.6894 2.74033C13.6952 2.76381 13.6982 2.78728 13.6982 2.81076C13.6982 2.96336 13.6806 3.1189 13.6454 3.27737C13.6101 3.43585 13.5602 3.59726 13.4957 3.7616H11.3123L11.057 5.24948H12.7914C12.7914 5.4373 12.7738 5.61925 12.7385 5.79533C12.7092 5.97141 12.6622 6.1563 12.5977 6.34998H10.8633L10.3967 9C10.156 9.03522 9.93885 9.05282 9.74517 9.05282C9.53387 9.05282 9.32257 9.03522 9.11128 9L10.2206 2.6699ZM15.4963 2.6699C15.6137 2.65229 15.737 2.64055 15.8661 2.63468C16.0011 2.62294 16.1273 2.61707 16.2447 2.61707C16.4853 2.61707 16.726 2.63468 16.9666 2.6699L17.7414 9C17.5183 9.03522 17.3041 9.05282 17.0987 9.05282C16.8932 9.05282 16.6731 9.03522 16.4384 9L16.3239 7.72341H14.3958L13.8324 9C13.6211 9.03522 13.401 9.05282 13.1721 9.05282C12.949 9.05282 12.7377 9.03522 12.5382 9L15.4963 2.6699ZM16.2271 6.66693L15.9982 4.13137L14.8712 6.66693H16.2271ZM19.6502 2.6787C19.8967 2.63175 20.1227 2.6024 20.3281 2.59066C20.5394 2.57305 20.7536 2.56425 20.9708 2.56425C21.2701 2.56425 21.5607 2.59066 21.8424 2.64348C22.1241 2.69044 22.3765 2.77848 22.5995 2.90761C22.8226 3.03086 23.0016 3.20401 23.1366 3.42704C23.2716 3.64421 23.3391 3.92007 23.3391 4.25462C23.3391 4.52461 23.298 4.76819 23.2158 4.98536C23.1395 5.20252 23.0397 5.39915 22.9165 5.57523C22.7991 5.74544 22.67 5.89217 22.5291 6.01543C22.3882 6.13282 22.2533 6.22966 22.1241 6.30596L22.0185 6.36759L22.9605 9C22.714 9.03522 22.4763 9.05282 22.2474 9.05282C22.0185 9.05282 21.8042 9.03522 21.6047 9L20.6274 6.05945L20.7771 5.97141C20.8651 5.91859 20.9796 5.85696 21.1205 5.78653C21.2613 5.71022 21.3993 5.61338 21.5343 5.49599C21.6693 5.37274 21.7837 5.226 21.8776 5.05579C21.9774 4.88558 22.0273 4.68015 22.0273 4.43951C22.0273 4.2869 22.0009 4.16071 21.948 4.06093C21.8952 3.95529 21.8219 3.87018 21.7279 3.80562C21.6399 3.74105 21.5372 3.69703 21.4198 3.67356C21.3024 3.64421 21.1821 3.62954 21.0588 3.62954C20.9356 3.62954 20.8358 3.63834 20.7595 3.65595L19.8175 9C19.7001 9.01174 19.5886 9.02054 19.4829 9.02641C19.3831 9.03815 19.2834 9.04402 19.1836 9.04402C19.0897 9.04402 18.987 9.04109 18.8754 9.03522C18.7639 9.02935 18.6524 9.01761 18.5409 9L19.6502 2.6787ZM25.0019 2.6787C25.2425 2.63761 25.4744 2.61707 25.6974 2.61707C25.8089 2.61707 25.9116 2.62294 26.0055 2.63468C26.0994 2.64642 26.2022 2.66109 26.3137 2.6787L27.0444 6.20912L29.0958 2.6787C29.1955 2.65522 29.2982 2.64055 29.4039 2.63468C29.5095 2.62294 29.6152 2.61707 29.7208 2.61707C29.8206 2.61707 29.9233 2.62294 30.029 2.63468C30.1405 2.64055 30.2461 2.65522 30.3459 2.6787L29.5183 9C29.2777 9.03522 29.0635 9.05282 28.8757 9.05282C28.6702 9.05282 28.4765 9.03522 28.2946 9L28.8845 4.8533L27.2117 7.67939C27.1236 7.69113 27.0356 7.70287 26.9476 7.71461C26.8654 7.72048 26.7832 7.72341 26.7011 7.72341C26.6189 7.72341 26.5367 7.72048 26.4545 7.71461C26.3782 7.70874 26.299 7.697 26.2168 7.67939L25.6446 4.81808L24.7906 9C24.5852 9.03522 24.3944 9.05282 24.2183 9.05282C24.0422 9.05282 23.8574 9.03522 23.6637 9L25.0019 2.6787ZM33.2561 2.6699C33.3735 2.65229 33.4967 2.64055 33.6258 2.63468C33.7608 2.62294 33.887 2.61707 34.0044 2.61707C34.2451 2.61707 34.4857 2.63468 34.7263 2.6699L35.5011 9C35.2781 9.03522 35.0638 9.05282 34.8584 9.05282C34.653 9.05282 34.4329 9.03522 34.1981 9L34.0837 7.72341H32.1556L31.5921 9C31.3808 9.03522 31.1607 9.05282 30.9318 9.05282C30.7088 9.05282 30.4975 9.03522 30.2979 9L33.2561 2.6699ZM33.9868 6.66693L33.7579 4.13137L32.631 6.66693H33.9868ZM34.1541 1.21723C34.2245 1.20549 34.3243 1.19669 34.4534 1.19082C34.5884 1.17908 34.7234 1.17321 34.8584 1.17321C35.011 1.17321 35.1607 1.17908 35.3074 1.19082C35.46 1.19669 35.5686 1.20549 35.6332 1.21723L34.383 2.16807C34.3243 2.1798 34.2392 2.18861 34.1277 2.19448C34.0162 2.20035 33.9017 2.20328 33.7843 2.20328C33.6669 2.20328 33.5466 2.20035 33.4234 2.19448C33.306 2.18274 33.2238 2.171 33.1768 2.15926L34.1541 1.21723ZM40.0928 7.80265C40.1573 7.95525 40.2072 8.12547 40.2424 8.31329C40.2835 8.5011 40.3099 8.68599 40.3217 8.86794C40.1925 8.92076 40.0546 8.96478 39.9079 9C39.7611 9.02935 39.6173 9.04989 39.4765 9.06163C39.3415 9.07924 39.2124 9.09098 39.0891 9.09684C38.9717 9.10271 38.8778 9.10565 38.8074 9.10565C38.3789 9.10565 38.0033 9.04695 37.6804 8.92957C37.3635 8.81218 37.0964 8.64784 36.8793 8.43654C36.668 8.21938 36.5095 7.96406 36.4039 7.67059C36.2982 7.37125 36.2454 7.03963 36.2454 6.67573C36.2454 6.10641 36.3305 5.57229 36.5007 5.0734C36.6709 4.5745 36.9086 4.14017 37.2138 3.7704C37.5249 3.39476 37.8976 3.10129 38.3319 2.89C38.7663 2.67283 39.2476 2.56425 39.7758 2.56425C40.0517 2.56425 40.2952 2.58186 40.5065 2.61707C40.7237 2.64642 40.9467 2.71392 41.1757 2.81957C41.1404 3.00152 41.0935 3.17173 41.0348 3.3302C40.982 3.48867 40.9057 3.66182 40.8059 3.84964C40.6063 3.77334 40.4302 3.72345 40.2776 3.69997C40.1309 3.67649 39.99 3.66475 39.855 3.66475C39.4618 3.66475 39.1243 3.74986 38.8426 3.92007C38.5609 4.09028 38.329 4.31332 38.1471 4.58918C37.971 4.85917 37.8389 5.16731 37.7509 5.5136C37.6687 5.85989 37.6276 6.20912 37.6276 6.56128C37.6276 7.04257 37.7509 7.4006 37.9974 7.63537C38.2498 7.87015 38.6078 7.98754 39.0715 7.98754C39.1595 7.98754 39.2417 7.9846 39.318 7.97873C39.3943 7.97286 39.4706 7.96406 39.5469 7.95232C39.6232 7.94058 39.7054 7.92297 39.7934 7.8995C39.8815 7.87015 39.9812 7.83787 40.0928 7.80265ZM42.1462 2.6787C42.3693 2.63761 42.5864 2.61707 42.7977 2.61707C42.8975 2.61707 43.0002 2.62294 43.1059 2.63468C43.2174 2.64055 43.3289 2.65522 43.4404 2.6787L42.3311 9C42.0905 9.03522 41.8704 9.05282 41.6708 9.05282C41.4595 9.05282 41.2482 9.03522 41.0369 9L42.1462 2.6787ZM46.1409 2.6699C46.2583 2.65229 46.3816 2.64055 46.5107 2.63468C46.6457 2.62294 46.7719 2.61707 46.8893 2.61707C47.1299 2.61707 47.3706 2.63468 47.6112 2.6699L48.3859 9C48.1629 9.03522 47.9487 9.05282 47.7433 9.05282C47.5378 9.05282 47.3177 9.03522 47.083 9L46.9685 7.72341H45.0404L44.477 9C44.2657 9.03522 44.0456 9.05282 43.8167 9.05282C43.5936 9.05282 43.3823 9.03522 43.1828 9L46.1409 2.6699ZM46.8717 6.66693L46.6427 4.13137L45.5158 6.66693H46.8717ZM49.1767 7.70581C49.3997 7.78798 49.6257 7.85841 49.8546 7.9171C50.0893 7.9758 50.3153 8.00514 50.5325 8.00514C50.7144 8.00514 50.8817 7.9846 51.0343 7.94352C51.1928 7.90243 51.3278 7.8408 51.4393 7.75863C51.5567 7.67646 51.6477 7.57668 51.7122 7.45929C51.7768 7.34191 51.8091 7.20398 51.8091 7.0455C51.8091 6.92812 51.7827 6.8254 51.7298 6.73736C51.677 6.64932 51.6095 6.57009 51.5273 6.49965C51.4452 6.42922 51.3483 6.36466 51.2368 6.30596C51.1253 6.2414 51.0138 6.1739 50.9023 6.10347C50.5266 5.88044 50.2273 5.65153 50.0042 5.41676C49.7871 5.17611 49.6785 4.89438 49.6785 4.57157C49.6785 4.25462 49.7343 3.97289 49.8458 3.72638C49.9573 3.474 50.1158 3.2627 50.3212 3.09249C50.5266 2.92228 50.7731 2.79315 51.0607 2.70511C51.3542 2.6112 51.6829 2.56425 52.0468 2.56425C52.3696 2.56425 52.6484 2.58773 52.8832 2.63468C53.1179 2.68164 53.3645 2.755 53.6227 2.85478C53.5992 3.01325 53.5581 3.18053 53.4994 3.35661C53.4408 3.53269 53.3586 3.70584 53.2529 3.87605C53.0827 3.79388 52.9066 3.72638 52.7247 3.67356C52.5486 3.62073 52.3168 3.59432 52.0292 3.59432C51.9235 3.59432 51.8091 3.60312 51.6858 3.62073C51.5684 3.63834 51.4598 3.67356 51.3601 3.72638C51.2662 3.77334 51.1869 3.84083 51.1224 3.92887C51.0578 4.01691 51.0255 4.13137 51.0255 4.27223C51.0255 4.47179 51.0959 4.63613 51.2368 4.76526C51.3835 4.89438 51.5684 5.02351 51.7915 5.15264C51.991 5.26415 52.1759 5.37567 52.3461 5.48719C52.5163 5.59871 52.666 5.71903 52.7951 5.84815C52.9242 5.97728 53.024 6.12401 53.0945 6.28836C53.1708 6.44683 53.2089 6.63171 53.2089 6.84301C53.2089 7.14235 53.1532 7.42995 53.0416 7.70581C52.936 7.98167 52.7687 8.22231 52.5398 8.42774C52.3168 8.63317 52.0321 8.79751 51.6858 8.92076C51.3395 9.04402 50.9287 9.10565 50.4532 9.10565C49.9015 9.10565 49.3586 9.00293 48.8245 8.79751C48.848 8.62143 48.8891 8.44535 48.9478 8.26926C49.0123 8.08731 49.0886 7.8995 49.1767 7.70581Z" fill="white"/>
<g filter="url(#filter2_d_92_171)">
<path d="M86.6929 47.12C86.8902 47.1021 87.0741 47.0841 87.2445 47.0662C87.4149 47.0483 87.5808 47.0348 87.7423 47.0258C87.9127 47.0079 88.0786 46.9989 88.2401 46.9989C88.4105 46.99 88.5943 46.9855 88.7917 46.9855C89.1773 46.9855 89.581 47.0213 90.0025 47.0931C90.4241 47.1649 90.8097 47.3039 91.1595 47.5102C91.5093 47.7075 91.7964 47.99 92.0206 48.3578C92.2538 48.7255 92.3704 49.2009 92.3704 49.7839C92.3704 50.3489 92.2717 50.8736 92.0744 51.358C91.886 51.8423 91.608 52.2639 91.2403 52.6226C90.8725 52.9724 90.4241 53.246 89.8949 53.4433C89.3657 53.6406 88.7648 53.7393 88.0921 53.7393C87.9486 53.7393 87.832 53.7393 87.7423 53.7393C87.6526 53.7303 87.5674 53.7214 87.4866 53.7124L86.9485 56.8202C86.7691 56.8471 86.5987 56.8651 86.4372 56.874C86.2758 56.883 86.1188 56.8875 85.9664 56.8875C85.8318 56.8875 85.6793 56.883 85.5089 56.874C85.3475 56.8651 85.1726 56.8471 84.9842 56.8202L86.6929 47.12ZM87.7826 52.071C87.8992 52.0979 88.101 52.1114 88.388 52.1114C88.6033 52.1114 88.8231 52.0755 89.0473 52.0037C89.2715 51.932 89.4778 51.8109 89.6662 51.6405C89.8545 51.4701 90.007 51.2458 90.1236 50.9678C90.2492 50.6898 90.3119 50.34 90.3119 49.9184C90.3119 49.6583 90.2671 49.443 90.1774 49.2726C90.0967 49.1022 89.9846 48.9721 89.8411 48.8825C89.7065 48.7838 89.554 48.7165 89.3836 48.6807C89.2132 48.6448 89.0473 48.6268 88.8858 48.6268C88.8141 48.6268 88.7468 48.6268 88.684 48.6268C88.6212 48.6268 88.5226 48.6358 88.388 48.6537L87.7826 52.071ZM97.8334 56.9817C96.6943 56.9817 95.8512 56.6633 95.3041 56.0264C94.7659 55.3896 94.4968 54.5062 94.4968 53.376C94.4968 52.8917 94.5372 52.3984 94.6179 51.8961C94.7076 51.3849 94.8421 50.8916 95.0215 50.4162C95.2009 49.9408 95.4251 49.4968 95.6942 49.0843C95.9633 48.6627 96.2817 48.2995 96.6494 47.9945C97.0261 47.6806 97.4477 47.4339 97.9141 47.2545C98.3895 47.0752 98.9142 46.9855 99.4882 46.9855C100.053 46.9855 100.547 47.0707 100.968 47.2411C101.39 47.4115 101.735 47.6537 102.004 47.9676C102.282 48.2815 102.488 48.6672 102.623 49.1246C102.757 49.5731 102.825 50.0843 102.825 50.6584C102.825 51.1427 102.78 51.6405 102.69 52.1517C102.609 52.654 102.479 53.1384 102.3 53.6048C102.121 54.0712 101.892 54.5106 101.614 54.9232C101.345 55.3358 101.026 55.6946 100.659 55.9995C100.291 56.3045 99.8694 56.5467 99.394 56.726C98.9276 56.8965 98.4074 56.9817 97.8334 56.9817ZM98.0083 55.3403C98.3581 55.3403 98.6675 55.2641 98.9366 55.1116C99.2146 54.9501 99.4523 54.7438 99.6496 54.4927C99.8559 54.2326 100.031 53.9366 100.174 53.6048C100.318 53.2639 100.43 52.9186 100.511 52.5688C100.6 52.21 100.663 51.8558 100.699 51.506C100.744 51.1562 100.766 50.8377 100.766 50.5507C100.766 49.295 100.282 48.6672 99.3133 48.6672C98.9635 48.6672 98.6496 48.7479 98.3715 48.9094C98.1025 49.0618 97.8648 49.2681 97.6585 49.5282C97.4522 49.7794 97.2773 50.0754 97.1338 50.4162C96.9903 50.7481 96.8737 51.0934 96.784 51.4521C96.7033 51.8019 96.6405 52.1517 96.5956 52.5015C96.5597 52.8513 96.5418 53.1742 96.5418 53.4702C96.5418 54.7169 97.0306 55.3403 98.0083 55.3403ZM106.703 47.12C106.901 47.1021 107.085 47.0841 107.255 47.0662C107.425 47.0483 107.591 47.0348 107.753 47.0258C107.923 47.0079 108.089 46.9989 108.251 46.9989C108.421 46.99 108.605 46.9855 108.802 46.9855C109.188 46.9855 109.591 47.0213 110.013 47.0931C110.435 47.1649 110.82 47.3039 111.17 47.5102C111.52 47.7075 111.807 47.99 112.031 48.3578C112.264 48.7255 112.381 49.2009 112.381 49.7839C112.381 50.3489 112.282 50.8736 112.085 51.358C111.897 51.8423 111.618 52.2639 111.251 52.6226C110.883 52.9724 110.435 53.246 109.905 53.4433C109.376 53.6406 108.775 53.7393 108.103 53.7393C107.959 53.7393 107.842 53.7393 107.753 53.7393C107.663 53.7303 107.578 53.7214 107.497 53.7124L106.959 56.8202C106.78 56.8471 106.609 56.8651 106.448 56.874C106.286 56.883 106.129 56.8875 105.977 56.8875C105.842 56.8875 105.69 56.883 105.519 56.874C105.358 56.8651 105.183 56.8471 104.995 56.8202L106.703 47.12ZM107.793 52.071C107.91 52.0979 108.112 52.1114 108.399 52.1114C108.614 52.1114 108.834 52.0755 109.058 52.0037C109.282 51.932 109.488 51.8109 109.677 51.6405C109.865 51.4701 110.017 51.2458 110.134 50.9678C110.26 50.6898 110.322 50.34 110.322 49.9184C110.322 49.6583 110.278 49.443 110.188 49.2726C110.107 49.1022 109.995 48.9721 109.852 48.8825C109.717 48.7838 109.565 48.7165 109.394 48.6807C109.224 48.6448 109.058 48.6268 108.896 48.6268C108.825 48.6268 108.757 48.6268 108.695 48.6268C108.632 48.6268 108.533 48.6358 108.399 48.6537L107.793 52.071ZM115.853 47.1469C116.032 47.111 116.202 47.0886 116.364 47.0796C116.534 47.0707 116.7 47.0662 116.862 47.0662C117.014 47.0662 117.167 47.0707 117.319 47.0796C117.481 47.0886 117.647 47.111 117.817 47.1469L116.942 52.1652C116.88 52.5329 116.83 52.8603 116.794 53.1473C116.759 53.4343 116.741 53.6944 116.741 53.9276C116.741 54.394 116.826 54.7394 116.996 54.9636C117.167 55.1789 117.467 55.2865 117.898 55.2865C118.23 55.2865 118.508 55.2282 118.732 55.1116C118.956 54.986 119.144 54.7977 119.297 54.5465C119.458 54.2864 119.588 53.9635 119.687 53.5778C119.795 53.1832 119.898 52.7123 119.996 52.1652L120.871 47.1469C121.068 47.111 121.243 47.0886 121.396 47.0796C121.557 47.0707 121.714 47.0662 121.867 47.0662C122.028 47.0662 122.189 47.0707 122.351 47.0796C122.512 47.0886 122.678 47.111 122.849 47.1469L121.893 52.5823C121.768 53.2998 121.611 53.9321 121.423 54.4793C121.234 55.0264 120.979 55.4838 120.656 55.8515C120.333 56.2193 119.925 56.5018 119.431 56.6991C118.947 56.8875 118.351 56.9817 117.642 56.9817C116.664 56.9817 115.938 56.7574 115.463 56.309C114.987 55.8605 114.749 55.1295 114.749 54.116C114.749 53.6675 114.799 53.1563 114.897 52.5823L115.853 47.1469ZM126.319 47.1469C126.66 47.0841 126.992 47.0527 127.315 47.0527C127.629 47.0527 127.943 47.0841 128.257 47.1469L126.857 55.125H130.033C130.033 55.2775 130.024 55.4255 130.006 55.569C129.988 55.7036 129.97 55.8336 129.952 55.9592C129.925 56.1027 129.894 56.2462 129.858 56.3897C129.822 56.5242 129.781 56.6677 129.737 56.8202H124.624L126.319 47.1469ZM136.413 47.1469C136.593 47.12 136.781 47.1021 136.978 47.0931C137.185 47.0752 137.377 47.0662 137.557 47.0662C137.925 47.0662 138.292 47.0931 138.66 47.1469L139.844 56.8202C139.503 56.874 139.176 56.9009 138.862 56.9009C138.548 56.9009 138.212 56.874 137.853 56.8202L137.678 54.8694H134.731L133.87 56.8202C133.548 56.874 133.211 56.9009 132.861 56.9009C132.521 56.9009 132.198 56.874 131.893 56.8202L136.413 47.1469ZM137.53 53.255L137.18 49.3802L135.458 53.255H137.53ZM144.241 47.1604C144.618 47.0886 144.963 47.0438 145.277 47.0258C145.6 46.9989 145.927 46.9855 146.259 46.9855C146.716 46.9855 147.16 47.0258 147.591 47.1066C148.021 47.1783 148.407 47.3128 148.748 47.5102C149.089 47.6985 149.362 47.9631 149.569 48.3039C149.775 48.6358 149.878 49.0574 149.878 49.5686C149.878 49.9812 149.815 50.3534 149.69 50.6853C149.573 51.0171 149.421 51.3176 149.232 51.5867C149.053 51.8468 148.855 52.071 148.64 52.2594C148.425 52.4388 148.219 52.5867 148.021 52.7033L147.86 52.7975L149.299 56.8202C148.923 56.874 148.559 56.9009 148.21 56.9009C147.86 56.9009 147.533 56.874 147.228 56.8202L145.734 52.3266L145.963 52.1921C146.097 52.1114 146.272 52.0172 146.488 51.9096C146.703 51.793 146.914 51.645 147.12 51.4656C147.326 51.2772 147.501 51.053 147.645 50.7929C147.797 50.5328 147.873 50.2189 147.873 49.8511C147.873 49.6179 147.833 49.4251 147.752 49.2726C147.672 49.1112 147.559 48.9811 147.416 48.8825C147.281 48.7838 147.124 48.7165 146.945 48.6807C146.766 48.6358 146.582 48.6134 146.393 48.6134C146.205 48.6134 146.053 48.6268 145.936 48.6537L144.496 56.8202C144.317 56.8382 144.147 56.8516 143.985 56.8606C143.833 56.8785 143.68 56.8875 143.528 56.8875C143.384 56.8875 143.227 56.883 143.057 56.874C142.886 56.8651 142.716 56.8471 142.546 56.8202L144.241 47.1604Z" fill="white"/>
</g>
</g>
<defs>
<filter id="filter0_d_92_171" x="0.655853" y="0.17321" width="158.064" height="65.8084" filterUnits="userSpaceOnUse" color-interpolation-filters="sRGB">
<feFlood flood-opacity="0" result="BackgroundImageFix"/>
<feColorMatrix in="SourceAlpha" type="matrix" values="0 0 0 0 0 0 0 0 0 0 0 0 0 0 0 0 0 0 127 0" result="hardAlpha"/>
<feOffset dy="4"/>
<feGaussianBlur stdDeviation="2.5"/>
<feComposite in2="hardAlpha" operator="out"/>
<feColorMatrix type="matrix" values="0 0 0 0 0 0 0 0 0 0 0 0 0 0 0 0 0 0 0.25 0"/>
<feBlend mode="normal" in2="BackgroundImageFix" result="effect1_dropShadow_92_171"/>
<feBlend mode="normal" in="SourceGraphic" in2="effect1_dropShadow_92_171" result="shape"/>
</filter>
<filter id="filter1_d_92_171" x="4.13831" y="6.89564" width="155.652" height="37.1403" filterUnits="userSpaceOnUse" color-interpolation-filters="sRGB">
<feFlood flood-opacity="0" result="BackgroundImageFix"/>
<feColorMatrix in="SourceAlpha" type="matrix" values="0 0 0 0 0 0 0 0 0 0 0 0 0 0 0 0 0 0 127 0" result="hardAlpha"/>
<feOffset dx="2.27631" dy="-2.27631"/>
<feGaussianBlur stdDeviation="1.89693"/>
<feComposite in2="hardAlpha" operator="out"/>
<feColorMatrix type="matrix" values="0 0 0 0 0 0 0 0 0 0 0 0 0 0 0 0 0 0 0.25 0"/>
<feBlend mode="normal" in2="BackgroundImageFix" result="effect1_dropShadow_92_171"/>
<feBlend mode="normal" in="SourceGraphic" in2="effect1_dropShadow_92_171" result="shape"/>
</filter>
<filter id="filter2_d_92_171" x="83.4894" y="41.006" width="72.3681" height="17.4705" filterUnits="userSpaceOnUse" color-interpolation-filters="sRGB">
<feFlood flood-opacity="0" result="BackgroundImageFix"/>
<feColorMatrix in="SourceAlpha" type="matrix" values="0 0 0 0 0 0 0 0 0 0 0 0 0 0 0 0 0 0 127 0" result="hardAlpha"/>
<feOffset dx="2.24231" dy="-2.24231"/>
<feGaussianBlur stdDeviation="1.86859"/>
<feComposite in2="hardAlpha" operator="out"/>
<feColorMatrix type="matrix" values="0 0 0 0 0 0 0 0 0 0 0 0 0 0 0 0 0 0 0.25 0"/>
<feBlend mode="normal" in2="BackgroundImageFix" result="effect1_dropShadow_92_171"/>
<feBlend mode="normal" in="SourceGraphic" in2="effect1_dropShadow_92_171" result="shape"/>
</filter>
</defs>
</svg>
