<svg width="70" height="70" viewBox="0 0 70 70" fill="none" xmlns="http://www.w3.org/2000/svg">
<path d="M35 60.0833C33.9396 60.086 32.9204 59.6725 32.1615 58.9318C32.1323 58.9062 32.1032 58.8782 32.0752 58.849L12.383 38.6377C12.3422 38.5957 12.3037 38.5525 12.2663 38.507C9.30192 35.4114 7.62395 31.3053 7.5719 27.0195C7.51984 22.7337 9.09759 18.5881 11.986 15.4213C14.8743 12.2546 18.8577 10.3031 23.1302 9.96171C27.4027 9.62031 31.6454 10.9145 35 13.5823C38.3555 10.9213 42.5958 9.63284 46.8646 9.97709C51.1333 10.3213 55.1123 12.2727 57.9981 15.437C60.8838 18.6013 62.4612 22.7429 62.4117 27.0252C62.3622 31.3075 60.6895 35.4114 57.7313 38.5082C57.695 38.5536 57.6561 38.5968 57.6147 38.6377L37.9248 58.849C37.8968 58.8786 37.8677 58.9066 37.8373 58.933C37.0788 59.6734 36.06 60.0865 35 60.0833ZM34.5193 56.343C34.5415 56.3628 34.5625 56.3838 34.5847 56.406C34.6384 56.4621 34.7028 56.5067 34.7742 56.5371C34.8456 56.5676 34.9224 56.5833 35 56.5833C35.0776 56.5833 35.1544 56.5676 35.2258 56.5371C35.2972 56.5067 35.3617 56.4621 35.4153 56.406L35.4807 56.3418L54.9908 36.3183C55.0258 36.2752 55.062 36.2343 55.1005 36.1947C57.5511 33.6749 58.9141 30.2936 58.8962 26.7788C58.8783 23.264 57.4808 19.8967 55.0047 17.4021C52.5286 14.9075 49.1718 13.485 45.6572 13.4409C42.1426 13.3968 38.7513 14.7346 36.2133 17.1663C35.8873 17.48 35.4525 17.6553 35 17.6553C34.5476 17.6553 34.1127 17.48 33.7867 17.1663C31.2487 14.7346 27.8574 13.3968 24.3428 13.4409C20.8282 13.485 17.4715 14.9075 14.9953 17.4021C12.5192 19.8967 11.1217 23.264 11.1038 26.7788C11.0859 30.2936 12.449 33.6749 14.8995 36.1947C14.9392 36.2343 14.9753 36.2763 15.0103 36.3183L34.5193 56.343Z" fill="#2C2C2C" fill-opacity="0.8"/>
<path d="M39.6667 46.0833C39.62 46.0833 39.5722 46.0833 39.5255 46.0774C39.1528 46.0472 38.7995 45.8983 38.5176 45.6527C38.2356 45.407 38.0397 45.0775 37.9587 44.7124L35 31.4008L32.0413 44.7124C31.9603 45.0775 31.7644 45.4069 31.4825 45.6526C31.2005 45.8982 30.8473 46.047 30.4746 46.0773C30.1019 46.1076 29.7293 46.0177 29.4114 45.8207C29.0935 45.6238 28.8471 45.3303 28.7082 44.9831L25.2782 36.4058L22.456 40.6373C22.2962 40.877 22.0797 41.0735 21.8257 41.2095C21.5717 41.3454 21.2881 41.4166 21 41.4166H9.33334C8.86921 41.4166 8.4241 41.2322 8.09591 40.904C7.76772 40.5759 7.58334 40.1307 7.58334 39.6666C7.58334 39.2025 7.76772 38.7574 8.09591 38.4292C8.4241 38.101 8.86921 37.9166 9.33334 37.9166H20.0667L24.2142 31.6959C24.391 31.4306 24.6371 31.2186 24.9257 31.0828C25.2143 30.9471 25.5344 30.8928 25.8516 30.9259C26.1689 30.9589 26.471 31.078 26.7254 31.2702C26.9799 31.4625 27.1769 31.7206 27.2953 32.0168L29.862 38.4229L33.3002 22.9541C33.3868 22.5657 33.6032 22.2185 33.9137 21.9697C34.2242 21.7208 34.6103 21.5852 35.0082 21.5852C35.4061 21.5852 35.7921 21.7208 36.1026 21.9697C36.4131 22.2185 36.6295 22.5657 36.7162 22.9541L40.1543 38.4229L42.721 32.0168C42.8394 31.7206 43.0365 31.4625 43.2909 31.2702C43.5454 31.078 43.8475 30.9589 44.1647 30.9259C44.4819 30.8928 44.8021 30.9471 45.0907 31.0828C45.3793 31.2186 45.6253 31.4306 45.8022 31.6959L49.9333 37.9166H60.6667C61.1308 37.9166 61.5759 38.101 61.9041 38.4292C62.2323 38.7574 62.4167 39.2025 62.4167 39.6666C62.4167 40.1307 62.2323 40.5759 61.9041 40.904C61.5759 41.2322 61.1308 41.4166 60.6667 41.4166H49C48.7119 41.4166 48.4283 41.3454 48.1743 41.2095C47.9203 41.0735 47.7038 40.877 47.544 40.6373L44.7218 36.4058L41.2918 44.9831C41.1619 45.3079 40.9377 45.5863 40.648 45.7824C40.3583 45.9785 40.0165 46.0833 39.6667 46.0833Z" fill="#2C2C2C" fill-opacity="0.8"/>
</svg>
