<svg width="138" height="53" viewBox="0 0 138 53" fill="none" xmlns="http://www.w3.org/2000/svg">
<path d="M6.86398 11.4192C7.32158 11.3277 7.7563 11.2705 8.16814 11.2476C8.60286 11.2247 9.02614 11.2133 9.43798 11.2133C9.82694 11.2133 10.2159 11.2247 10.6049 11.2476C11.0167 11.2705 11.44 11.3277 11.8747 11.4192L9.6439 24.2205C9.48374 25.1586 9.3579 25.9937 9.26638 26.7259C9.17486 27.4581 9.1291 28.1216 9.1291 28.7165C9.1291 29.9062 9.34646 30.7871 9.78118 31.3591C10.2159 31.9082 10.9824 32.1828 12.0806 32.1828C12.9272 32.1828 13.6365 32.0341 14.2085 31.7366C14.7805 31.4163 15.2609 30.9358 15.6499 30.2952C16.0617 29.6317 16.3935 28.808 16.6452 27.8241C16.9197 26.8174 17.1829 25.6162 17.4345 24.2205L19.6653 11.4192C20.1687 11.3277 20.6149 11.2705 21.0038 11.2476C21.4157 11.2247 21.8161 11.2133 22.205 11.2133C22.6169 11.2133 23.0287 11.2247 23.4405 11.2476C23.8524 11.2705 24.2757 11.3277 24.7104 11.4192L22.2737 25.2845C21.9533 27.1149 21.5529 28.7279 21.0725 30.1236C20.592 31.5193 19.9399 32.6861 19.1162 33.6242C18.2925 34.5623 17.2515 35.283 15.9931 35.7864C14.7576 36.2669 13.2361 36.5071 11.4285 36.5071C8.93462 36.5071 7.08134 35.9351 5.8687 34.7911C4.65606 33.6471 4.04974 31.7824 4.04974 29.1969C4.04974 28.0529 4.17558 26.7488 4.42726 25.2845L6.86398 11.4192ZM26.6999 17.6654C26.9515 16.4528 27.1231 15.4003 27.2147 14.508C27.3291 13.5928 27.3863 12.8263 27.3863 12.2085C27.3863 11.9569 27.3748 11.7509 27.3519 11.5908C27.3519 11.4077 27.3405 11.2133 27.3176 11.0073C27.7066 10.9387 28.1527 10.8929 28.6561 10.8701C29.1595 10.8243 29.5942 10.8014 29.9603 10.8014C30.6238 10.8014 31.3559 10.8701 32.1567 11.0073C32.2711 11.3505 32.3283 11.7853 32.3283 12.3115C32.3283 12.792 32.2826 13.3411 32.1911 13.9589C32.0995 14.5766 31.9851 15.2516 31.8479 15.9837L29.2052 29.7804C29.1366 30.1693 29.1023 30.4897 29.1023 30.7413C29.1023 31.1074 29.148 31.3934 29.2395 31.5993C29.3539 31.8053 29.4912 31.9654 29.6514 32.0798C29.8115 32.1942 29.9946 32.2743 30.2005 32.3201C30.4064 32.3429 30.6123 32.3544 30.8183 32.3544C30.9098 32.3544 31.0814 32.3429 31.3331 32.3201C31.5847 32.2743 31.8135 32.2171 32.0195 32.1485C32.1339 32.5374 32.2254 32.9607 32.294 33.4183C32.3855 33.8759 32.4313 34.3449 32.4313 34.8254C32.4313 35.0085 32.4199 35.1801 32.397 35.3402C32.397 35.5004 32.3855 35.672 32.3627 35.855C32.0195 35.9923 31.5733 36.0953 31.0242 36.1639C30.4751 36.2554 29.8687 36.3012 29.2052 36.3012C27.6494 36.3012 26.4253 35.9237 25.533 35.1686C24.6407 34.3907 24.1945 33.1781 24.1945 31.5307C24.1945 31.2104 24.2174 30.8786 24.2631 30.5354C24.3089 30.1693 24.3661 29.7918 24.4347 29.4029L26.6999 17.6654ZM35.6306 22.0584H32.9879C32.9879 21.4406 33.0337 20.8343 33.1252 20.2394C33.2167 19.6445 33.3883 19.0153 33.64 18.3518H36.2827L36.4886 17.3222C36.603 16.7502 36.6716 16.2125 36.6945 15.7092C36.7174 15.1829 36.7288 14.7482 36.7288 14.405C37.3237 14.0161 38.0673 13.7415 38.9596 13.5813C39.8519 13.4212 40.6756 13.3411 41.4307 13.3411C41.5451 13.6843 41.6023 14.119 41.6023 14.6453C41.6023 15.0113 41.5679 15.4117 41.4993 15.8465C41.4535 16.2583 41.3849 16.7159 41.2934 17.2193L41.0875 18.3518H45.3431C45.3431 19.0382 45.2859 19.6674 45.1715 20.2394C45.0571 20.8114 44.897 21.4177 44.6911 22.0584H40.4354L39.2342 28.8194C39.1884 29.1397 39.1427 29.4372 39.0969 29.7117C39.074 29.9863 39.0626 30.2494 39.0626 30.5011C39.0626 31.096 39.1999 31.565 39.4744 31.9082C39.749 32.2514 40.2638 32.423 41.0188 32.423C41.4078 32.423 41.751 32.4001 42.0484 32.3544C42.3459 32.2857 42.6204 32.2171 42.8721 32.1485C43.1695 32.812 43.3183 33.6814 43.3183 34.7568C43.3183 34.9398 43.3183 35.1229 43.3183 35.3059C43.3183 35.4889 43.3068 35.672 43.2839 35.855C42.3001 36.1525 41.1218 36.3012 39.749 36.3012C37.8271 36.3012 36.3971 35.9465 35.459 35.2373C34.5438 34.528 34.0862 33.3382 34.0862 31.668C34.0862 31.3248 34.1091 30.9701 34.1548 30.6041C34.2006 30.238 34.2578 29.8376 34.3264 29.4029L35.6306 22.0584ZM45.8188 25.9709C46.0705 24.5294 46.2535 23.2596 46.3679 22.1613C46.5052 21.0402 46.5738 20.1708 46.5738 19.553C46.5738 19.3013 46.5738 19.0954 46.5738 18.9353C46.5738 18.7522 46.5624 18.5577 46.5395 18.3518C47.2945 18.2145 48.0496 18.1459 48.8046 18.1459C49.1478 18.1459 49.491 18.1688 49.8342 18.2145C50.1774 18.2374 50.5435 18.2832 50.9325 18.3518C50.9782 18.5349 51.024 18.7522 51.0697 19.0039C51.1155 19.2556 51.1384 19.6331 51.1384 20.1365C51.1384 20.3424 51.1269 20.5483 51.1041 20.7542C51.1041 20.9601 51.0812 21.2118 51.0354 21.5093C51.2642 21.0974 51.5502 20.697 51.8934 20.3081C52.2366 19.8962 52.6141 19.5301 53.026 19.2098C53.4607 18.8895 53.9297 18.6378 54.4331 18.4548C54.9593 18.2489 55.5313 18.1459 56.1491 18.1459C56.6296 18.1459 57.0414 18.2031 57.3846 18.3175C57.4075 18.409 57.4189 18.5005 57.4189 18.5921C57.4189 18.6836 57.4189 18.7865 57.4189 18.9009C57.4189 19.5416 57.3389 20.2051 57.1787 20.8915C57.0185 21.5779 56.8012 22.1499 56.5266 22.6075C56.3893 22.5846 56.2406 22.5617 56.0805 22.5389C55.9203 22.516 55.7144 22.5045 55.4627 22.5045C54.5246 22.5045 53.7467 22.6647 53.1289 22.985C52.5341 23.3053 52.0421 23.7629 51.6532 24.3578C51.2642 24.9298 50.9553 25.6277 50.7265 26.4513C50.4977 27.275 50.2918 28.1902 50.1088 29.1969L48.8389 36.0953C47.9466 36.2325 47.1115 36.3012 46.3336 36.3012C45.5328 36.3012 44.7434 36.2325 43.9655 36.0953L45.8188 25.9709ZM67.3685 22.0241C67.1626 21.9783 66.9567 21.9554 66.7508 21.9554C66.5677 21.9325 66.3847 21.9211 66.2016 21.9211C65.1034 21.9211 64.1653 22.1957 63.3874 22.7448C62.6324 23.2939 62.0032 23.9803 61.4998 24.804C60.9964 25.6277 60.6304 26.52 60.4016 27.4809C60.1728 28.419 60.0584 29.277 60.0584 30.0549C60.0584 31.7481 60.6189 32.5946 61.7401 32.5946C62.8383 32.5946 63.8564 31.9311 64.7945 30.6041C65.7326 29.2541 66.419 27.3665 66.8537 24.9413L67.3685 22.0241ZM70.9035 28.4076C70.6518 29.849 70.4688 31.1303 70.3544 32.2514C70.24 33.3497 70.1828 34.2077 70.1828 34.8254C70.1828 35.0771 70.1828 35.2945 70.1828 35.4775C70.1828 35.6377 70.1942 35.8207 70.2171 36.0266C69.462 36.1639 68.7184 36.2325 67.9863 36.2325C67.3456 36.2325 66.6364 36.1639 65.8584 36.0266C65.8127 35.8436 65.7669 35.6262 65.7212 35.3745C65.6754 35.1229 65.6525 34.7453 65.6525 34.242C65.6525 34.0361 65.6525 33.8187 65.6525 33.5899C65.6525 33.3611 65.6754 33.098 65.7212 32.8005C65.0576 33.853 64.2111 34.7339 63.1815 35.4432C62.1519 36.1525 60.9507 36.5071 59.5779 36.5071C58.0678 36.5071 56.9353 36.0266 56.1802 35.0657C55.4252 34.1047 55.0477 32.8349 55.0477 31.2561C55.0477 29.5401 55.2993 27.8813 55.8027 26.2797C56.3289 24.6781 57.0954 23.2596 58.1021 22.0241C59.1317 20.7885 60.4016 19.8047 61.9116 19.0725C63.4217 18.3175 65.1835 17.94 67.1969 17.94C68.2036 17.94 69.1417 18.0086 70.0112 18.1459C70.8806 18.2832 71.7386 18.4777 72.5852 18.7293L70.9035 28.4076ZM78.0879 11.4535C79.026 11.2933 79.9297 11.2133 80.7992 11.2133C81.2339 11.2133 81.6343 11.2361 82.0004 11.2819C82.3665 11.3277 82.7669 11.3849 83.2016 11.4535L86.0501 25.2158L94.0467 11.4535C94.4357 11.362 94.8361 11.3048 95.2479 11.2819C95.6597 11.2361 96.0716 11.2133 96.4834 11.2133C96.8724 11.2133 97.2728 11.2361 97.6846 11.2819C98.1193 11.3048 98.5312 11.362 98.9201 11.4535L95.6941 36.0953C94.756 36.2325 93.9209 36.3012 93.1887 36.3012C92.3879 36.3012 91.6329 36.2325 90.9236 36.0953L93.223 19.9305L86.7022 30.9473C86.359 30.993 86.0158 31.0388 85.6726 31.0845C85.3523 31.1074 85.032 31.1189 84.7117 31.1189C84.3913 31.1189 84.071 31.1074 83.7507 31.0845C83.4533 31.0617 83.1444 31.0159 82.8241 30.9473L80.5933 19.7933L77.2642 36.0953C76.4634 36.2325 75.7198 36.3012 75.0334 36.3012C74.347 36.3012 73.6263 36.2325 72.8713 36.0953L78.0879 11.4535ZM103.572 29.3685C103.709 30.4668 104.075 31.2905 104.67 31.8396C105.265 32.3658 106.135 32.6289 107.279 32.6289C108.194 32.6289 108.995 32.5374 109.681 32.3544C110.39 32.1485 111.134 31.8853 111.912 31.565C112.278 32.0226 112.518 32.5832 112.633 33.2467C112.77 33.8873 112.839 34.5737 112.839 35.3059C112.45 35.4889 111.992 35.6605 111.466 35.8207C110.962 35.958 110.436 36.0724 109.887 36.1639C109.338 36.2783 108.789 36.3584 108.24 36.4041C107.691 36.4728 107.199 36.5071 106.764 36.5071C105.368 36.5071 104.167 36.3355 103.16 35.9923C102.176 35.6491 101.353 35.1686 100.689 34.5509C100.049 33.9102 99.5681 33.1437 99.2478 32.2514C98.9503 31.3362 98.8016 30.3295 98.8016 29.2313C98.8016 27.8356 99.0419 26.4628 99.5223 25.1129C100.003 23.7629 100.678 22.5617 101.547 21.5093C102.44 20.4339 103.515 19.5759 104.773 18.9353C106.055 18.2717 107.485 17.94 109.063 17.94C109.818 17.94 110.516 18.0315 111.157 18.2145C111.82 18.3976 112.392 18.6836 112.873 19.0725C113.353 19.4386 113.731 19.8962 114.005 20.4453C114.28 20.9945 114.417 21.6351 114.417 22.3673C114.417 23.3969 114.177 24.2892 113.697 25.0442C113.216 25.7993 112.575 26.4399 111.775 26.9661C110.974 27.4924 110.059 27.9271 109.029 28.2703C108.022 28.5906 106.97 28.8309 105.872 28.991L103.572 29.3685ZM105.528 25.8679C106.398 25.7306 107.107 25.559 107.656 25.3531C108.205 25.1243 108.64 24.8841 108.96 24.6324C109.281 24.3578 109.498 24.0833 109.612 23.8087C109.727 23.5341 109.784 23.2596 109.784 22.985C109.784 22.5503 109.635 22.1957 109.338 21.9211C109.063 21.6465 108.686 21.5093 108.205 21.5093C107.61 21.5093 107.061 21.6465 106.558 21.9211C106.077 22.1728 105.654 22.516 105.288 22.9507C104.922 23.3854 104.602 23.8888 104.327 24.4608C104.075 25.0099 103.881 25.5705 103.744 26.1425L105.528 25.8679ZM126.525 22.0241C126.319 21.9783 126.113 21.9554 125.907 21.9554C125.724 21.9325 125.541 21.9211 125.358 21.9211C124.26 21.9211 123.322 22.1957 122.544 22.7448C121.789 23.2939 121.16 23.9803 120.656 24.804C120.153 25.6277 119.787 26.52 119.558 27.4809C119.329 28.419 119.215 29.277 119.215 30.0549C119.215 31.7481 119.775 32.5946 120.896 32.5946C121.995 32.5946 123.013 31.9311 123.951 30.6041C124.889 29.2541 125.575 27.3665 126.01 24.9413L126.525 22.0241ZM130.197 28.4076C129.945 29.849 129.762 31.1303 129.648 32.2514C129.534 33.3497 129.476 34.2077 129.476 34.8254C129.476 35.0771 129.476 35.2945 129.476 35.4775C129.476 35.6377 129.488 35.8207 129.511 36.0266C128.756 36.1639 128.012 36.2325 127.28 36.2325C126.639 36.2325 125.93 36.1639 125.152 36.0266C125.106 35.8436 125.061 35.6262 125.015 35.3745C124.969 35.1229 124.946 34.7453 124.946 34.242C124.946 34.0361 124.946 33.7958 124.946 33.5213C124.969 33.2467 125.003 32.9607 125.049 32.6633C124.729 33.1895 124.34 33.6929 123.882 34.1733C123.448 34.6309 122.956 35.0313 122.407 35.3745C121.88 35.7177 121.308 35.9923 120.691 36.1982C120.073 36.4041 119.421 36.5071 118.734 36.5071C117.224 36.5071 116.092 36.0266 115.337 35.0657C114.582 34.1047 114.204 32.8349 114.204 31.2561C114.204 29.5401 114.456 27.8813 114.959 26.2797C115.485 24.6781 116.252 23.2596 117.259 22.0241C118.288 20.7885 119.558 19.8047 121.068 19.0725C122.578 18.3175 124.34 17.94 126.353 17.94C126.513 17.94 126.662 17.9514 126.799 17.9743C126.96 17.9743 127.097 17.9743 127.211 17.9743C127.463 16.6244 127.635 15.4804 127.726 14.5423C127.841 13.6042 127.898 12.8263 127.898 12.2085C127.898 11.9569 127.886 11.7509 127.863 11.5908C127.863 11.4077 127.852 11.2133 127.829 11.0073C128.218 10.9387 128.664 10.8929 129.168 10.8701C129.671 10.8243 130.106 10.8014 130.472 10.8014C131.135 10.8014 131.867 10.8701 132.668 11.0073C132.783 11.3505 132.84 11.7853 132.84 12.3115C132.84 13.3182 132.703 14.5423 132.428 15.9837L130.197 28.4076Z" fill="white"/>
<path d="M8.31353 2.07081H11.3308C11.3308 2.09123 11.3308 2.11165 11.3308 2.13207C11.3359 2.15249 11.3384 2.17291 11.3384 2.19333C11.3384 2.32607 11.3231 2.46136 11.2925 2.59921C11.2619 2.73705 11.2185 2.87745 11.1623 3.0204H9.26312L9.04104 4.3146H10.5497C10.5497 4.47797 10.5343 4.63623 10.5037 4.78939C10.4782 4.94255 10.4373 5.10337 10.3812 5.27185H8.87256L8.46669 7.5769C8.25737 7.60754 8.06847 7.62285 7.89999 7.62285C7.7162 7.62285 7.53241 7.60754 7.34862 7.5769L8.31353 2.07081ZM12.9025 2.07081C13.0046 2.05549 13.1118 2.04528 13.2242 2.04017C13.3416 2.02996 13.4513 2.02486 13.5534 2.02486C13.7628 2.02486 13.9721 2.04017 14.1814 2.07081L14.8553 7.5769C14.6613 7.60754 14.475 7.62285 14.2963 7.62285C14.1176 7.62285 13.9261 7.60754 13.7219 7.5769L13.6224 6.46649H11.9453L11.4552 7.5769C11.2714 7.60754 11.0799 7.62285 10.8808 7.62285C10.6868 7.62285 10.503 7.60754 10.3294 7.5769L12.9025 2.07081ZM13.5381 5.54754L13.339 3.34203L12.3588 5.54754H13.5381ZM16.5157 2.07846C16.7301 2.03762 16.9266 2.01209 17.1053 2.00188C17.2891 1.98657 17.4755 1.97891 17.6644 1.97891C17.9247 1.97891 18.1774 2.00188 18.4225 2.04783C18.6676 2.08867 18.8871 2.16525 19.0811 2.27757C19.2751 2.38478 19.4308 2.53539 19.5482 2.72939C19.6656 2.91829 19.7244 3.15824 19.7244 3.44924C19.7244 3.68409 19.6886 3.89596 19.6171 4.08486C19.5508 4.27376 19.464 4.44478 19.3568 4.59794C19.2547 4.746 19.1424 4.87363 19.0198 4.98084C18.8973 5.08295 18.7799 5.16719 18.6676 5.23356L18.5757 5.28716L19.3951 7.5769C19.1806 7.60754 18.9739 7.62285 18.7748 7.62285C18.5757 7.62285 18.3893 7.60754 18.2157 7.5769L17.3657 5.01913L17.4959 4.94255C17.5725 4.89661 17.672 4.843 17.7945 4.78174C17.9171 4.71537 18.037 4.63113 18.1545 4.52902C18.2719 4.42181 18.3714 4.29418 18.4531 4.14612C18.5399 3.99807 18.5833 3.81938 18.5833 3.61006C18.5833 3.47732 18.5603 3.36756 18.5144 3.28077C18.4684 3.18887 18.4046 3.11485 18.3229 3.05869C18.2464 3.00253 18.157 2.96424 18.0549 2.94382C17.9528 2.91829 17.8481 2.90553 17.7409 2.90553C17.6337 2.90553 17.5469 2.91318 17.4806 2.9285L16.6612 7.5769C16.5591 7.58711 16.4621 7.59477 16.3702 7.59988C16.2834 7.61009 16.1966 7.61519 16.1098 7.61519C16.0281 7.61519 15.9388 7.61264 15.8418 7.60754C15.7448 7.60243 15.6478 7.59222 15.5508 7.5769L16.5157 2.07846ZM21.1707 2.07846C21.38 2.04273 21.5817 2.02486 21.7757 2.02486C21.8727 2.02486 21.962 2.02996 22.0437 2.04017C22.1254 2.05038 22.2147 2.06315 22.3117 2.07846L22.9474 5.14932L24.7317 2.07846C24.8185 2.05804 24.9078 2.04528 24.9997 2.04017C25.0916 2.02996 25.1835 2.02486 25.2754 2.02486C25.3622 2.02486 25.4515 2.02996 25.5434 2.04017C25.6404 2.04528 25.7323 2.05804 25.8191 2.07846L25.0993 7.5769C24.8899 7.60754 24.7036 7.62285 24.5402 7.62285C24.3615 7.62285 24.1931 7.60754 24.0348 7.5769L24.5479 3.96999L23.0929 6.4282C23.0163 6.43842 22.9397 6.44863 22.8631 6.45884C22.7916 6.46394 22.7202 6.46649 22.6487 6.46649C22.5772 6.46649 22.5057 6.46394 22.4343 6.45884C22.3679 6.45373 22.299 6.44352 22.2275 6.4282L21.7297 3.93936L20.9869 7.5769C20.8082 7.60754 20.6423 7.62285 20.4891 7.62285C20.336 7.62285 20.1752 7.60754 20.0067 7.5769L21.1707 2.07846ZM28.3504 2.07081C28.4525 2.05549 28.5598 2.04528 28.6721 2.04017C28.7895 2.02996 28.8993 2.02486 29.0014 2.02486C29.2107 2.02486 29.42 2.04017 29.6293 2.07081L30.3032 7.5769C30.1092 7.60754 29.9229 7.62285 29.7442 7.62285C29.5655 7.62285 29.3741 7.60754 29.1698 7.5769L29.0703 6.46649H27.3932L26.9031 7.5769C26.7193 7.60754 26.5278 7.62285 26.3287 7.62285C26.1347 7.62285 25.9509 7.60754 25.7773 7.5769L28.3504 2.07081ZM28.986 5.54754L28.7869 3.34203L27.8067 5.54754H28.986ZM29.1315 0.807236C29.1928 0.797025 29.2796 0.789367 29.3919 0.784262C29.5093 0.774051 29.6268 0.768946 29.7442 0.768946C29.8769 0.768946 30.0071 0.774051 30.1347 0.784262C30.2675 0.789367 30.3619 0.797025 30.4181 0.807236L29.3307 1.6343C29.2796 1.64451 29.2056 1.65217 29.1086 1.65727C29.0116 1.66238 28.912 1.66493 28.8099 1.66493C28.7078 1.66493 28.6031 1.66238 28.4959 1.65727C28.3938 1.64706 28.3224 1.63685 28.2815 1.62664L29.1315 0.807236ZM34.2972 6.53542C34.3533 6.66816 34.3967 6.81621 34.4274 6.97958C34.4631 7.14295 34.4861 7.30377 34.4963 7.46203C34.384 7.50798 34.264 7.54627 34.1363 7.5769C34.0087 7.60243 33.8836 7.6203 33.7611 7.63051C33.6437 7.64583 33.5314 7.65604 33.4242 7.66114C33.322 7.66625 33.2404 7.6688 33.1791 7.6688C32.8064 7.6688 32.4797 7.61775 32.1989 7.51564C31.9232 7.41353 31.6909 7.27058 31.502 7.08679C31.3182 6.8979 31.1804 6.67581 31.0885 6.42055C30.9966 6.16018 30.9506 5.87172 30.9506 5.55519C30.9506 5.05998 31.0246 4.59539 31.1727 4.16144C31.3208 3.72749 31.5275 3.34969 31.793 3.02805C32.0636 2.70131 32.3878 2.44605 32.7656 2.26226C33.1434 2.07336 33.562 1.97891 34.0215 1.97891C34.2614 1.97891 34.4733 1.99423 34.6571 2.02486C34.846 2.05038 35.04 2.1091 35.2391 2.20099C35.2085 2.35926 35.1676 2.50731 35.1166 2.64515C35.0706 2.783 35.0043 2.93361 34.9175 3.09698C34.7439 3.03061 34.5907 2.98721 34.458 2.96679C34.3304 2.94637 34.2078 2.93616 34.0904 2.93616C33.7483 2.93616 33.4548 3.01019 33.2097 3.15824C32.9647 3.3063 32.763 3.5003 32.6047 3.74025C32.4516 3.97509 32.3367 4.24312 32.2601 4.54434C32.1887 4.84555 32.1529 5.14932 32.1529 5.45564C32.1529 5.87428 32.2601 6.1857 32.4746 6.38991C32.6941 6.59413 33.0055 6.69623 33.4088 6.69623C33.4854 6.69623 33.5569 6.69368 33.6233 6.68858C33.6896 6.68347 33.756 6.67581 33.8224 6.6656C33.8887 6.65539 33.9602 6.64008 34.0368 6.61965C34.1134 6.59413 34.2002 6.56605 34.2972 6.53542ZM36.0833 2.07846C36.2773 2.04273 36.4662 2.02486 36.65 2.02486C36.7368 2.02486 36.8262 2.02996 36.9181 2.04017C37.0151 2.04528 37.1121 2.05804 37.2091 2.07846L36.2442 7.5769C36.0348 7.60754 35.8434 7.62285 35.6698 7.62285C35.486 7.62285 35.3022 7.60754 35.1184 7.5769L36.0833 2.07846ZM39.558 2.07081C39.6601 2.05549 39.7673 2.04528 39.8797 2.04017C39.9971 2.02996 40.1069 2.02486 40.209 2.02486C40.4183 2.02486 40.6276 2.04017 40.8369 2.07081L41.5108 7.5769C41.3168 7.60754 41.1305 7.62285 40.9518 7.62285C40.7731 7.62285 40.5816 7.60754 40.3774 7.5769L40.2779 6.46649H38.6008L38.1107 7.5769C37.9269 7.60754 37.7354 7.62285 37.5363 7.62285C37.3423 7.62285 37.1585 7.60754 36.9849 7.5769L39.558 2.07081ZM40.1936 5.54754L39.9945 3.34203L39.0143 5.54754H40.1936ZM42.1986 6.45118C42.3926 6.52265 42.5892 6.58392 42.7883 6.63497C42.9925 6.68602 43.189 6.71155 43.3779 6.71155C43.5362 6.71155 43.6817 6.69368 43.8144 6.65794C43.9523 6.62221 44.0697 6.5686 44.1667 6.49713C44.2688 6.42565 44.3479 6.33886 44.4041 6.23675C44.4603 6.13465 44.4883 6.01467 44.4883 5.87683C44.4883 5.77472 44.4654 5.68538 44.4194 5.6088C44.3735 5.53222 44.3148 5.4633 44.2433 5.40203C44.1718 5.34077 44.0876 5.28461 43.9906 5.23356C43.8936 5.1774 43.7966 5.11869 43.6996 5.05742C43.3728 4.86342 43.1125 4.66431 42.9185 4.4601C42.7296 4.25078 42.6351 4.00573 42.6351 3.72493C42.6351 3.44924 42.6836 3.20419 42.7806 2.98976C42.8776 2.77024 43.0155 2.58644 43.1941 2.43839C43.3728 2.29033 43.5873 2.17802 43.8374 2.10144C44.0927 2.01975 44.3786 1.97891 44.6951 1.97891C44.9759 1.97891 45.2184 1.99933 45.4226 2.04017C45.6268 2.08102 45.8413 2.14483 46.0659 2.23162C46.0455 2.36947 46.0097 2.51497 45.9587 2.66813C45.9076 2.82129 45.8362 2.9719 45.7443 3.11995C45.5962 3.04848 45.443 2.98976 45.2848 2.94382C45.1316 2.89787 44.93 2.87489 44.6798 2.87489C44.5879 2.87489 44.4883 2.88255 44.3811 2.89787C44.279 2.91318 44.1846 2.94382 44.0978 2.98976C44.0161 3.03061 43.9472 3.08932 43.891 3.1659C43.8349 3.24248 43.8068 3.34203 43.8068 3.46456C43.8068 3.63814 43.868 3.78109 43.9906 3.89341C44.1182 4.00573 44.279 4.11804 44.473 4.23036C44.6466 4.32736 44.8074 4.42436 44.9555 4.52136C45.1035 4.61837 45.2337 4.72302 45.346 4.83534C45.4584 4.94766 45.5451 5.07529 45.6064 5.21824C45.6728 5.35609 45.706 5.5169 45.706 5.7007C45.706 5.96107 45.6575 6.21123 45.5605 6.45118C45.4686 6.69113 45.3231 6.90045 45.124 7.07913C44.93 7.25782 44.6823 7.40077 44.3811 7.50798C44.0799 7.61519 43.7225 7.6688 43.309 7.6688C42.8291 7.6688 42.3569 7.57946 41.8923 7.40077C41.9127 7.24761 41.9484 7.09445 41.9995 6.94129C42.0557 6.78303 42.122 6.61965 42.1986 6.45118Z" fill="white"/>
<path d="M74.4107 41.5625C74.5824 41.5469 74.7423 41.5313 74.8905 41.5157C75.0388 41.5001 75.1831 41.4884 75.3235 41.4806C75.4717 41.465 75.6161 41.4572 75.7565 41.4572C75.9047 41.4494 76.0647 41.4455 76.2363 41.4455C76.5718 41.4455 76.9229 41.4767 77.2895 41.5391C77.6562 41.6015 77.9917 41.7224 78.296 41.9019C78.6002 42.0735 78.8499 42.3192 79.0449 42.6391C79.2478 42.959 79.3492 43.3725 79.3492 43.8796C79.3492 44.3711 79.2634 44.8275 79.0917 45.2488C78.9279 45.6701 78.686 46.0367 78.3662 46.3488C78.0463 46.6531 77.6562 46.891 77.1959 47.0627C76.7356 47.2343 76.2129 47.3201 75.6278 47.3201C75.503 47.3201 75.4015 47.3201 75.3235 47.3201C75.2455 47.3123 75.1714 47.3045 75.1012 47.2967L74.6331 50C74.477 50.0234 74.3288 50.039 74.1884 50.0468C74.0479 50.0546 73.9114 50.0585 73.7788 50.0585C73.6618 50.0585 73.5291 50.0546 73.3809 50.0468C73.2405 50.039 73.0883 50.0234 72.9245 50L74.4107 41.5625ZM75.3586 45.869C75.46 45.8924 75.6356 45.9041 75.8852 45.9041C76.0725 45.9041 76.2636 45.8729 76.4587 45.8105C76.6537 45.7481 76.8331 45.6428 76.997 45.4945C77.1608 45.3463 77.2934 45.1513 77.3949 44.9094C77.5041 44.6676 77.5587 44.3633 77.5587 43.9966C77.5587 43.7704 77.5197 43.5831 77.4417 43.4349C77.3715 43.2867 77.2739 43.1735 77.1491 43.0955C77.0321 43.0097 76.8995 42.9512 76.7512 42.92C76.603 42.8888 76.4587 42.8732 76.3182 42.8732C76.2558 42.8732 76.1973 42.8732 76.1427 42.8732C76.0881 42.8732 76.0023 42.881 75.8852 42.8966L75.3586 45.869ZM84.101 50.1404C83.1102 50.1404 82.3769 49.8635 81.901 49.3096C81.4329 48.7556 81.1988 47.9872 81.1988 47.0042C81.1988 46.5829 81.2339 46.1538 81.3041 45.7169C81.3822 45.2722 81.4992 44.8431 81.6552 44.4296C81.8113 44.0161 82.0063 43.6299 82.2403 43.2711C82.4744 42.9044 82.7514 42.5884 83.0712 42.3231C83.3989 42.0501 83.7656 41.8355 84.1713 41.6795C84.5847 41.5235 85.0411 41.4455 85.5405 41.4455C86.032 41.4455 86.4611 41.5196 86.8277 41.6678C87.1944 41.816 87.4948 42.0267 87.7288 42.2997C87.9707 42.5728 88.1501 42.9083 88.2671 43.3062C88.3842 43.6962 88.4427 44.1409 88.4427 44.6402C88.4427 45.0615 88.4037 45.4945 88.3257 45.9392C88.2554 46.3761 88.1423 46.7974 87.9863 47.2031C87.8302 47.6088 87.6313 47.9911 87.3895 48.3499C87.1554 48.7088 86.8784 49.0209 86.5586 49.2861C86.2387 49.5514 85.872 49.762 85.4585 49.9181C85.0528 50.0663 84.6004 50.1404 84.101 50.1404ZM84.2532 48.7127C84.5574 48.7127 84.8266 48.6464 85.0606 48.5138C85.3025 48.3733 85.5092 48.1939 85.6809 47.9755C85.8603 47.7492 86.0125 47.4918 86.1373 47.2031C86.2621 46.9066 86.3596 46.6063 86.4298 46.302C86.5079 45.9899 86.5625 45.6818 86.5937 45.3775C86.6327 45.0732 86.6522 44.7963 86.6522 44.5466C86.6522 43.4544 86.2309 42.9083 85.3883 42.9083C85.0841 42.9083 84.811 42.9785 84.5691 43.1189C84.3351 43.2515 84.1283 43.431 83.9489 43.6572C83.7695 43.8757 83.6173 44.1331 83.4925 44.4296C83.3677 44.7183 83.2663 45.0186 83.1882 45.3307C83.118 45.635 83.0634 45.9392 83.0244 46.2435C82.9932 46.5478 82.9776 46.8286 82.9776 47.0861C82.9776 48.1705 83.4028 48.7127 84.2532 48.7127ZM91.8164 41.5625C91.988 41.5469 92.148 41.5313 92.2962 41.5157C92.4444 41.5001 92.5888 41.4884 92.7292 41.4806C92.8774 41.465 93.0217 41.4572 93.1622 41.4572C93.3104 41.4494 93.4703 41.4455 93.642 41.4455C93.9775 41.4455 94.3285 41.4767 94.6952 41.5391C95.0619 41.6015 95.3974 41.7224 95.7016 41.9019C96.0059 42.0735 96.2555 42.3192 96.4506 42.6391C96.6534 42.959 96.7548 43.3725 96.7548 43.8796C96.7548 44.3711 96.669 44.8275 96.4974 45.2488C96.3336 45.6701 96.0917 46.0367 95.7718 46.3488C95.452 46.6531 95.0619 46.891 94.6016 47.0627C94.1413 47.2343 93.6186 47.3201 93.0334 47.3201C92.9086 47.3201 92.8072 47.3201 92.7292 47.3201C92.6512 47.3123 92.577 47.3045 92.5068 47.2967L92.0387 50C91.8827 50.0234 91.7345 50.039 91.594 50.0468C91.4536 50.0546 91.3171 50.0585 91.1844 50.0585C91.0674 50.0585 90.9348 50.0546 90.7866 50.0468C90.6461 50.039 90.494 50.0234 90.3302 50L91.8164 41.5625ZM92.7643 45.869C92.8657 45.8924 93.0412 45.9041 93.2909 45.9041C93.4781 45.9041 93.6693 45.8729 93.8643 45.8105C94.0594 45.7481 94.2388 45.6428 94.4026 45.4945C94.5665 45.3463 94.6991 45.1513 94.8005 44.9094C94.9098 44.6676 94.9644 44.3633 94.9644 43.9966C94.9644 43.7704 94.9254 43.5831 94.8473 43.4349C94.7771 43.2867 94.6796 43.1735 94.5548 43.0955C94.4377 43.0097 94.3051 42.9512 94.1569 42.92C94.0087 42.8888 93.8643 42.8732 93.7239 42.8732C93.6615 42.8732 93.603 42.8732 93.5484 42.8732C93.4937 42.8732 93.4079 42.881 93.2909 42.8966L92.7643 45.869ZM99.7747 41.5859C99.9308 41.5547 100.079 41.5352 100.219 41.5274C100.368 41.5196 100.512 41.5157 100.652 41.5157C100.785 41.5157 100.918 41.5196 101.05 41.5274C101.191 41.5352 101.335 41.5547 101.483 41.5859L100.723 45.9509C100.668 46.2708 100.625 46.5556 100.594 46.8052C100.563 47.0549 100.547 47.2811 100.547 47.484C100.547 47.8896 100.621 48.19 100.769 48.3851C100.918 48.5723 101.179 48.6659 101.554 48.6659C101.842 48.6659 102.084 48.6152 102.279 48.5138C102.474 48.4046 102.638 48.2407 102.771 48.0223C102.911 47.796 103.024 47.5152 103.11 47.1797C103.204 46.8364 103.293 46.4268 103.379 45.9509L104.14 41.5859C104.311 41.5547 104.464 41.5352 104.596 41.5274C104.737 41.5196 104.873 41.5157 105.006 41.5157C105.146 41.5157 105.287 41.5196 105.427 41.5274C105.567 41.5352 105.712 41.5547 105.86 41.5859L105.029 46.3137C104.92 46.9378 104.783 47.4879 104.62 47.9638C104.456 48.4397 104.233 48.8375 103.953 49.1574C103.672 49.4773 103.317 49.723 102.888 49.8947C102.466 50.0585 101.948 50.1404 101.331 50.1404C100.481 50.1404 99.8489 49.9454 99.4354 49.5553C99.0219 49.1652 98.8151 48.5294 98.8151 47.6478C98.8151 47.2577 98.858 46.813 98.9439 46.3137L99.7747 41.5859ZM108.879 41.5859C109.175 41.5313 109.464 41.504 109.745 41.504C110.018 41.504 110.291 41.5313 110.564 41.5859L109.347 48.5255H112.109C112.109 48.6581 112.101 48.7868 112.085 48.9117C112.07 49.0287 112.054 49.1418 112.039 49.251C112.015 49.3759 111.988 49.5007 111.957 49.6255C111.925 49.7425 111.89 49.8674 111.851 50H107.404L108.879 41.5859ZM117.659 41.5859C117.815 41.5625 117.979 41.5469 118.15 41.5391C118.33 41.5235 118.498 41.5157 118.654 41.5157C118.973 41.5157 119.293 41.5391 119.613 41.5859L120.643 50C120.347 50.0468 120.062 50.0702 119.789 50.0702C119.516 50.0702 119.223 50.0468 118.911 50L118.759 48.3031H116.196L115.447 50C115.166 50.0468 114.874 50.0702 114.569 50.0702C114.273 50.0702 113.992 50.0468 113.727 50L117.659 41.5859ZM118.63 46.8988L118.326 43.5285L116.828 46.8988H118.63ZM124.468 41.5976C124.795 41.5352 125.096 41.4962 125.369 41.4806C125.649 41.4572 125.934 41.4455 126.223 41.4455C126.621 41.4455 127.007 41.4806 127.381 41.5508C127.756 41.6132 128.091 41.7302 128.388 41.9019C128.684 42.0657 128.922 42.2958 129.102 42.5923C129.281 42.881 129.371 43.2476 129.371 43.6923C129.371 44.0512 129.316 44.375 129.207 44.6637C129.106 44.9523 128.973 45.2137 128.809 45.4477C128.653 45.674 128.481 45.869 128.294 46.0328C128.107 46.1889 127.928 46.3176 127.756 46.419L127.615 46.5009L128.868 50C128.54 50.0468 128.224 50.0702 127.92 50.0702C127.615 50.0702 127.331 50.0468 127.065 50L125.766 46.0914L125.965 45.9743C126.082 45.9041 126.235 45.8222 126.422 45.7286C126.609 45.6272 126.792 45.4984 126.972 45.3424C127.151 45.1786 127.303 44.9835 127.428 44.7573C127.561 44.531 127.627 44.258 127.627 43.9381C127.627 43.7353 127.592 43.5675 127.522 43.4349C127.452 43.2945 127.354 43.1813 127.229 43.0955C127.112 43.0097 126.976 42.9512 126.82 42.92C126.664 42.881 126.504 42.8615 126.34 42.8615C126.176 42.8615 126.043 42.8732 125.942 42.8966L124.69 50C124.534 50.0156 124.386 50.0273 124.245 50.0351C124.113 50.0507 123.98 50.0585 123.847 50.0585C123.722 50.0585 123.586 50.0546 123.438 50.0468C123.289 50.039 123.141 50.0234 122.993 50L124.468 41.5976Z" fill="white"/>
</svg>
