<svg width="26" height="26" viewBox="0 0 26 26" fill="none" xmlns="http://www.w3.org/2000/svg">
<path d="M13 2.16666C7.02 2.16666 2.16667 7.02 2.16667 13C2.16667 18.98 7.02 23.8333 13 23.8333H18.4167V21.6667H13C8.29833 21.6667 4.33333 17.7017 4.33333 13C4.33333 8.29833 8.29833 4.33333 13 4.33333C17.7017 4.33333 21.6667 8.29833 21.6667 13V14.5492C21.6667 15.405 20.8975 16.25 20.0417 16.25C19.1858 16.25 18.4167 15.405 18.4167 14.5492V13C18.4167 10.01 15.99 7.58333 13 7.58333C10.01 7.58333 7.58333 10.01 7.58333 13C7.58333 15.99 10.01 18.4167 13 18.4167C14.495 18.4167 15.86 17.81 16.835 16.8242C17.5392 17.7883 18.7525 18.4167 20.0417 18.4167C22.1758 18.4167 23.8333 16.6833 23.8333 14.5492V13C23.8333 7.02 18.98 2.16666 13 2.16666ZM13 16.25C11.2017 16.25 9.75 14.7983 9.75 13C9.75 11.2017 11.2017 9.75 13 9.75C14.7983 9.75 16.25 11.2017 16.25 13C16.25 14.7983 14.7983 16.25 13 16.25Z" fill="#003778"/>
</svg>
