<svg width="26" height="26" viewBox="0 0 26 26" fill="none" xmlns="http://www.w3.org/2000/svg">
<path d="M5.86346 7.00001C5.91725 7.89001 6.05173 8.76001 6.26691 9.59001L5.19104 10.79C4.82346 9.59001 4.59036 8.32001 4.50967 7.00001H5.86346ZM14.7035 19.02C15.4655 19.26 16.2455 19.41 17.0345 19.47V20.96C15.851 20.87 14.7124 20.61 13.6276 20.21L14.7035 19.02ZM6.72415 5.00002H3.58622C3.09311 5.00002 2.68967 5.45001 2.68967 6.00001C2.68967 15.39 9.51242 23 17.931 23C18.4241 23 18.8276 22.55 18.8276 22V18.51C18.8276 17.96 18.4241 17.51 17.931 17.51C16.8193 17.51 15.7345 17.31 14.7303 16.94C14.6407 16.9 14.5421 16.89 14.4524 16.89C14.2193 16.89 13.9952 16.99 13.8159 17.18L11.8435 19.38C9.30621 17.93 7.22622 15.62 5.93518 12.79L7.90759 10.59C8.15863 10.31 8.23035 9.92001 8.13173 9.57001C7.80001 8.45001 7.6207 7.25001 7.6207 6.00001C7.6207 5.45001 7.21725 5.00002 6.72415 5.00002Z" fill="#003778"/>
<path d="M11.8046 3.16667H23.1609V12.6667H12.635L11.8046 13.5929V3.16667ZM11.8046 1.58334C11.0238 1.58334 10.3921 2.29584 10.3921 3.16667L10.385 17.4167L13.2241 14.25H23.1609C23.9416 14.25 24.5804 13.5375 24.5804 12.6667V3.16667C24.5804 2.29584 23.9416 1.58334 23.1609 1.58334H11.8046ZM13.2241 9.5H21.7414V11.0833H13.2241V9.5ZM13.2241 7.125H21.7414V8.70833H13.2241V7.125ZM13.2241 4.75H21.7414V6.33333H13.2241V4.75Z" fill="#003778"/>
</svg>
